<svg xmlns="http://www.w3.org/2000/svg" width="960" height="320" viewBox="0 0 960 320" role="img" aria-labelledby="title desc">
  <title id="title">ESP8266 LED Matrix Controller</title>
  <desc id="desc">A stylized LED matrix with wireless signal marks and project title.</desc>
  <defs>
    <linearGradient id="bg" x1="0" x2="1" y1="0" y2="1">
      <stop offset="0%" stop-color="#101820"/>
      <stop offset="55%" stop-color="#14213d"/>
      <stop offset="100%" stop-color="#0b3d2e"/>
    </linearGradient>
    <linearGradient id="ledA" x1="0" x2="1" y1="0" y2="1">
      <stop offset="0%" stop-color="#ffffff"/>
      <stop offset="100%" stop-color="#00d1ff"/>
    </linearGradient>
    <linearGradient id="ledB" x1="0" x2="1" y1="0" y2="1">
      <stop offset="0%" stop-color="#ffef7a"/>
      <stop offset="100%" stop-color="#ff4d6d"/>
    </linearGradient>
    <filter id="glow" x="-50%" y="-50%" width="200%" height="200%">
      <feGaussianBlur stdDeviation="5" result="blur"/>
      <feMerge>
        <feMergeNode in="blur"/>
        <feMergeNode in="SourceGraphic"/>
      </feMerge>
    </filter>
  </defs>
  <rect width="960" height="320" rx="28" fill="url(#bg)"/>
  <g opacity="0.22" fill="none" stroke="#ffffff" stroke-width="1">
    <path d="M0 255 C160 180 260 300 420 225 S720 145 960 215"/>
    <path d="M0 95 C160 40 270 130 420 90 S715 15 960 75"/>
  </g>
  <g transform="translate(70 55)" filter="url(#glow)">
    <rect x="0" y="0" width="210" height="210" rx="20" fill="#071018" stroke="#2de2e6" stroke-width="3"/>
    <g transform="translate(24 24)">
      <script type="application/ecmascript"><![CDATA[]]></script>
      <circle cx="0" cy="0" r="0" fill="none"/>
      <g>
        <circle cx="0" cy="0" r="9" fill="url(#ledA)"/>
        <circle cx="27" cy="0" r="9" fill="#35ff69"/>
        <circle cx="54" cy="0" r="9" fill="#ff4d6d"/>
        <circle cx="81" cy="0" r="9" fill="#ffef7a"/>
        <circle cx="108" cy="0" r="9" fill="#00d1ff"/>
        <circle cx="135" cy="0" r="9" fill="#35ff69"/>
        <circle cx="162" cy="0" r="9" fill="#ffffff"/>
      </g>
      <g transform="translate(0 27)">
        <circle cx="0" cy="0" r="9" fill="#ffef7a"/>
        <circle cx="27" cy="0" r="9" fill="#00d1ff"/>
        <circle cx="54" cy="0" r="9" fill="#35ff69"/>
        <circle cx="81" cy="0" r="9" fill="#ffffff"/>
        <circle cx="108" cy="0" r="9" fill="#ff4d6d"/>
        <circle cx="135" cy="0" r="9" fill="#ffef7a"/>
        <circle cx="162" cy="0" r="9" fill="#00d1ff"/>
      </g>
      <g transform="translate(0 54)">
        <circle cx="0" cy="0" r="9" fill="#ff4d6d"/>
        <circle cx="27" cy="0" r="9" fill="#ffffff"/>
        <circle cx="54" cy="0" r="9" fill="#00d1ff"/>
        <circle cx="81" cy="0" r="9" fill="#35ff69"/>
        <circle cx="108" cy="0" r="9" fill="#ffef7a"/>
        <circle cx="135" cy="0" r="9" fill="#ffffff"/>
        <circle cx="162" cy="0" r="9" fill="#35ff69"/>
      </g>
      <g transform="translate(0 81)">
        <circle cx="0" cy="0" r="9" fill="#00d1ff"/>
        <circle cx="27" cy="0" r="9" fill="#35ff69"/>
        <circle cx="54" cy="0" r="9" fill="#ffef7a"/>
        <circle cx="81" cy="0" r="9" fill="#ff4d6d"/>
        <circle cx="108" cy="0" r="9" fill="#ffffff"/>
        <circle cx="135" cy="0" r="9" fill="#00d1ff"/>
        <circle cx="162" cy="0" r="9" fill="#ffef7a"/>
      </g>
      <g transform="translate(0 108)">
        <circle cx="0" cy="0" r="9" fill="#35ff69"/>
        <circle cx="27" cy="0" r="9" fill="#ff4d6d"/>
        <circle cx="54" cy="0" r="9" fill="#ffffff"/>
        <circle cx="81" cy="0" r="9" fill="#00d1ff"/>
        <circle cx="108" cy="0" r="9" fill="#35ff69"/>
        <circle cx="135" cy="0" r="9" fill="#ffef7a"/>
        <circle cx="162" cy="0" r="9" fill="#ffffff"/>
      </g>
      <g transform="translate(0 135)">
        <circle cx="0" cy="0" r="9" fill="#ffffff"/>
        <circle cx="27" cy="0" r="9" fill="#ffef7a"/>
        <circle cx="54" cy="0" r="9" fill="#ff4d6d"/>
        <circle cx="81" cy="0" r="9" fill="#35ff69"/>
        <circle cx="108" cy="0" r="9" fill="#00d1ff"/>
        <circle cx="135" cy="0" r="9" fill="#ffffff"/>
        <circle cx="162" cy="0" r="9" fill="#ff4d6d"/>
      </g>
      <g transform="translate(0 162)">
        <circle cx="0" cy="0" r="9" fill="#ffef7a"/>
        <circle cx="27" cy="0" r="9" fill="#00d1ff"/>
        <circle cx="54" cy="0" r="9" fill="#35ff69"/>
        <circle cx="81" cy="0" r="9" fill="#ffffff"/>
        <circle cx="108" cy="0" r="9" fill="#ff4d6d"/>
        <circle cx="135" cy="0" r="9" fill="#35ff69"/>
        <circle cx="162" cy="0" r="9" fill="#00d1ff"/>
      </g>
    </g>
  </g>
  <g transform="translate(315 86)">
    <text x="0" y="0" fill="#ffffff" font-family="Inter, Segoe UI, Arial, sans-serif" font-size="52" font-weight="800">LED Matrix Controller</text>
    <text x="2" y="48" fill="#b7f9ff" font-family="Inter, Segoe UI, Arial, sans-serif" font-size="22" font-weight="500">ESP8266 + WS2812B + Binary TCP Protocol</text>
    <g transform="translate(0 85)" fill="none" stroke="#2de2e6" stroke-width="7" stroke-linecap="round">
      <path d="M0 40 C28 12 68 12 96 40"/>
      <path d="M20 58 C38 40 58 40 76 58"/>
      <circle cx="48" cy="76" r="4" fill="#2de2e6" stroke="none"/>
    </g>
    <text x="125" y="141" fill="#ffffff" font-family="Inter, Segoe UI, Arial, sans-serif" font-size="24" font-weight="700">Port 7777</text>
    <text x="126" y="174" fill="#d8f3dc" font-family="Inter, Segoe UI, Arial, sans-serif" font-size="18">resilient Wi-Fi, frame buffer, brightness, panel on/off</text>
  </g>
</svg>
